<mxfile host="app.diagrams.net" agent="Mozilla/5.0 (Windows NT 10.0; Win64; x64) AppleWebKit/537.36 (KHTML, like Gecko) Chrome/127.0.0.0 Safari/537.36 OPR/113.0.0.0" version="24.7.14">
  <diagram name="Page-1" id="p7g3PM8JSor_-tCEi5_6">
    <mxGraphModel dx="1009" dy="1708" grid="1" gridSize="10" guides="1" tooltips="1" connect="1" arrows="1" fold="1" page="1" pageScale="1" pageWidth="827" pageHeight="1169" math="0" shadow="0">
      <root>
        <mxCell id="0" />
        <mxCell id="1" parent="0" />
        <mxCell id="n0QjlRPCd2mmZXUzSAw1-3" value="" style="edgeStyle=orthogonalEdgeStyle;rounded=0;orthogonalLoop=1;jettySize=auto;html=1;" edge="1" parent="1" source="n0QjlRPCd2mmZXUzSAw1-1" target="n0QjlRPCd2mmZXUzSAw1-2">
          <mxGeometry relative="1" as="geometry" />
        </mxCell>
        <mxCell id="n0QjlRPCd2mmZXUzSAw1-1" value="Generation" style="rounded=0;whiteSpace=wrap;html=1;" vertex="1" parent="1">
          <mxGeometry x="354" y="-410" width="120" height="60" as="geometry" />
        </mxCell>
        <mxCell id="n0QjlRPCd2mmZXUzSAw1-5" value="" style="edgeStyle=orthogonalEdgeStyle;rounded=0;orthogonalLoop=1;jettySize=auto;html=1;" edge="1" parent="1" source="n0QjlRPCd2mmZXUzSAw1-2" target="n0QjlRPCd2mmZXUzSAw1-4">
          <mxGeometry relative="1" as="geometry" />
        </mxCell>
        <mxCell id="n0QjlRPCd2mmZXUzSAw1-2" value="ask for name" style="whiteSpace=wrap;html=1;rounded=0;" vertex="1" parent="1">
          <mxGeometry x="354" y="-270" width="120" height="60" as="geometry" />
        </mxCell>
        <mxCell id="n0QjlRPCd2mmZXUzSAw1-7" value="" style="edgeStyle=orthogonalEdgeStyle;rounded=0;orthogonalLoop=1;jettySize=auto;html=1;" edge="1" parent="1" source="n0QjlRPCd2mmZXUzSAw1-4" target="n0QjlRPCd2mmZXUzSAw1-6">
          <mxGeometry relative="1" as="geometry" />
        </mxCell>
        <mxCell id="n0QjlRPCd2mmZXUzSAw1-9" value="" style="edgeStyle=orthogonalEdgeStyle;rounded=0;orthogonalLoop=1;jettySize=auto;html=1;" edge="1" parent="1" source="n0QjlRPCd2mmZXUzSAw1-4" target="n0QjlRPCd2mmZXUzSAw1-8">
          <mxGeometry relative="1" as="geometry" />
        </mxCell>
        <mxCell id="n0QjlRPCd2mmZXUzSAw1-11" value="" style="edgeStyle=orthogonalEdgeStyle;rounded=0;orthogonalLoop=1;jettySize=auto;html=1;" edge="1" parent="1" source="n0QjlRPCd2mmZXUzSAw1-4" target="n0QjlRPCd2mmZXUzSAw1-10">
          <mxGeometry relative="1" as="geometry" />
        </mxCell>
        <mxCell id="n0QjlRPCd2mmZXUzSAw1-4" value="ask for recipient" style="rhombus;whiteSpace=wrap;html=1;rounded=0;" vertex="1" parent="1">
          <mxGeometry x="371" y="-140" width="86" height="110" as="geometry" />
        </mxCell>
        <mxCell id="n0QjlRPCd2mmZXUzSAw1-45" value="" style="edgeStyle=orthogonalEdgeStyle;rounded=0;orthogonalLoop=1;jettySize=auto;html=1;" edge="1" parent="1" source="n0QjlRPCd2mmZXUzSAw1-6" target="n0QjlRPCd2mmZXUzSAw1-44">
          <mxGeometry relative="1" as="geometry" />
        </mxCell>
        <mxCell id="n0QjlRPCd2mmZXUzSAw1-6" value="other" style="whiteSpace=wrap;html=1;rounded=0;" vertex="1" parent="1">
          <mxGeometry x="550" y="-115" width="120" height="60" as="geometry" />
        </mxCell>
        <mxCell id="n0QjlRPCd2mmZXUzSAw1-13" value="" style="edgeStyle=orthogonalEdgeStyle;rounded=0;orthogonalLoop=1;jettySize=auto;html=1;" edge="1" parent="1" source="n0QjlRPCd2mmZXUzSAw1-8" target="n0QjlRPCd2mmZXUzSAw1-12">
          <mxGeometry relative="1" as="geometry" />
        </mxCell>
        <mxCell id="n0QjlRPCd2mmZXUzSAw1-8" value="Warden/proctor" style="whiteSpace=wrap;html=1;rounded=0;" vertex="1" parent="1">
          <mxGeometry x="188" y="-115" width="120" height="60" as="geometry" />
        </mxCell>
        <mxCell id="n0QjlRPCd2mmZXUzSAw1-36" style="edgeStyle=orthogonalEdgeStyle;rounded=0;orthogonalLoop=1;jettySize=auto;html=1;entryX=1;entryY=0.25;entryDx=0;entryDy=0;" edge="1" parent="1" source="n0QjlRPCd2mmZXUzSAw1-10" target="n0QjlRPCd2mmZXUzSAw1-22">
          <mxGeometry relative="1" as="geometry" />
        </mxCell>
        <mxCell id="n0QjlRPCd2mmZXUzSAw1-10" value="faculty&amp;nbsp;" style="whiteSpace=wrap;html=1;rounded=0;" vertex="1" parent="1">
          <mxGeometry x="354" y="75" width="120" height="60" as="geometry" />
        </mxCell>
        <mxCell id="n0QjlRPCd2mmZXUzSAw1-23" style="edgeStyle=orthogonalEdgeStyle;rounded=0;orthogonalLoop=1;jettySize=auto;html=1;entryX=0.5;entryY=0;entryDx=0;entryDy=0;" edge="1" parent="1" source="n0QjlRPCd2mmZXUzSAw1-12" target="n0QjlRPCd2mmZXUzSAw1-22">
          <mxGeometry relative="1" as="geometry" />
        </mxCell>
        <mxCell id="n0QjlRPCd2mmZXUzSAw1-12" value="about leave requests" style="whiteSpace=wrap;html=1;rounded=0;" vertex="1" parent="1">
          <mxGeometry x="188" y="25" width="120" height="60" as="geometry" />
        </mxCell>
        <mxCell id="n0QjlRPCd2mmZXUzSAw1-17" value="" style="edgeStyle=orthogonalEdgeStyle;rounded=0;orthogonalLoop=1;jettySize=auto;html=1;" edge="1" parent="1" source="n0QjlRPCd2mmZXUzSAw1-14" target="n0QjlRPCd2mmZXUzSAw1-16">
          <mxGeometry relative="1" as="geometry" />
        </mxCell>
        <mxCell id="n0QjlRPCd2mmZXUzSAw1-14" value="Enter date and time, from and to" style="whiteSpace=wrap;html=1;rounded=0;" vertex="1" parent="1">
          <mxGeometry x="188" y="210" width="120" height="60" as="geometry" />
        </mxCell>
        <mxCell id="n0QjlRPCd2mmZXUzSAw1-19" value="" style="edgeStyle=orthogonalEdgeStyle;rounded=0;orthogonalLoop=1;jettySize=auto;html=1;" edge="1" parent="1" source="n0QjlRPCd2mmZXUzSAw1-16" target="n0QjlRPCd2mmZXUzSAw1-18">
          <mxGeometry relative="1" as="geometry" />
        </mxCell>
        <mxCell id="n0QjlRPCd2mmZXUzSAw1-16" value="Enter reason&amp;nbsp;" style="whiteSpace=wrap;html=1;rounded=0;" vertex="1" parent="1">
          <mxGeometry x="188" y="316" width="120" height="60" as="geometry" />
        </mxCell>
        <mxCell id="n0QjlRPCd2mmZXUzSAw1-28" value="" style="edgeStyle=orthogonalEdgeStyle;rounded=0;orthogonalLoop=1;jettySize=auto;html=1;" edge="1" parent="1" source="n0QjlRPCd2mmZXUzSAw1-18" target="n0QjlRPCd2mmZXUzSAw1-27">
          <mxGeometry relative="1" as="geometry" />
        </mxCell>
        <mxCell id="n0QjlRPCd2mmZXUzSAw1-18" value="no of words" style="whiteSpace=wrap;html=1;rounded=0;" vertex="1" parent="1">
          <mxGeometry x="188" y="420" width="120" height="60" as="geometry" />
        </mxCell>
        <mxCell id="n0QjlRPCd2mmZXUzSAw1-37" style="edgeStyle=orthogonalEdgeStyle;rounded=0;orthogonalLoop=1;jettySize=auto;html=1;entryX=0;entryY=0.5;entryDx=0;entryDy=0;" edge="1" parent="1" source="n0QjlRPCd2mmZXUzSAw1-22" target="n0QjlRPCd2mmZXUzSAw1-16">
          <mxGeometry relative="1" as="geometry">
            <Array as="points">
              <mxPoint x="170" y="160" />
              <mxPoint x="170" y="258" />
              <mxPoint x="168" y="258" />
              <mxPoint x="168" y="346" />
            </Array>
          </mxGeometry>
        </mxCell>
        <mxCell id="n0QjlRPCd2mmZXUzSAw1-22" value="Genrate appropiate subject" style="shape=hexagon;perimeter=hexagonPerimeter2;whiteSpace=wrap;html=1;fixedSize=1;" vertex="1" parent="1">
          <mxGeometry x="40" y="120" width="120" height="80" as="geometry" />
        </mxCell>
        <mxCell id="n0QjlRPCd2mmZXUzSAw1-24" style="edgeStyle=orthogonalEdgeStyle;rounded=0;orthogonalLoop=1;jettySize=auto;html=1;entryX=0.563;entryY=-0.017;entryDx=0;entryDy=0;entryPerimeter=0;" edge="1" parent="1" source="n0QjlRPCd2mmZXUzSAw1-22" target="n0QjlRPCd2mmZXUzSAw1-14">
          <mxGeometry relative="1" as="geometry" />
        </mxCell>
        <mxCell id="n0QjlRPCd2mmZXUzSAw1-30" value="" style="edgeStyle=orthogonalEdgeStyle;rounded=0;orthogonalLoop=1;jettySize=auto;html=1;" edge="1" parent="1" source="n0QjlRPCd2mmZXUzSAw1-27" target="n0QjlRPCd2mmZXUzSAw1-29">
          <mxGeometry relative="1" as="geometry" />
        </mxCell>
        <mxCell id="n0QjlRPCd2mmZXUzSAw1-27" value="Generate response using gemni api" style="shape=hexagon;perimeter=hexagonPerimeter2;whiteSpace=wrap;html=1;fixedSize=1;rounded=0;" vertex="1" parent="1">
          <mxGeometry x="474" y="520" width="120" height="80" as="geometry" />
        </mxCell>
        <mxCell id="n0QjlRPCd2mmZXUzSAw1-32" value="" style="edgeStyle=orthogonalEdgeStyle;rounded=0;orthogonalLoop=1;jettySize=auto;html=1;entryX=0.5;entryY=0;entryDx=0;entryDy=0;" edge="1" parent="1" source="n0QjlRPCd2mmZXUzSAw1-29" target="n0QjlRPCd2mmZXUzSAw1-50">
          <mxGeometry relative="1" as="geometry">
            <mxPoint x="380" y="867" as="targetPoint" />
          </mxGeometry>
        </mxCell>
        <mxCell id="n0QjlRPCd2mmZXUzSAw1-38" value="ok" style="edgeLabel;html=1;align=center;verticalAlign=middle;resizable=0;points=[];fontSize=21;" vertex="1" connectable="0" parent="n0QjlRPCd2mmZXUzSAw1-32">
          <mxGeometry x="-0.4689" relative="1" as="geometry">
            <mxPoint as="offset" />
          </mxGeometry>
        </mxCell>
        <mxCell id="n0QjlRPCd2mmZXUzSAw1-46" style="edgeStyle=orthogonalEdgeStyle;rounded=0;orthogonalLoop=1;jettySize=auto;html=1;entryX=0;entryY=0.75;entryDx=0;entryDy=0;" edge="1" parent="1" source="n0QjlRPCd2mmZXUzSAw1-29" target="n0QjlRPCd2mmZXUzSAw1-16">
          <mxGeometry relative="1" as="geometry" />
        </mxCell>
        <mxCell id="n0QjlRPCd2mmZXUzSAw1-47" value="&lt;font style=&quot;font-size: 17px;&quot;&gt;Not okay&lt;/font&gt;" style="edgeLabel;html=1;align=center;verticalAlign=middle;resizable=0;points=[];" vertex="1" connectable="0" parent="n0QjlRPCd2mmZXUzSAw1-46">
          <mxGeometry x="0.0238" y="3" relative="1" as="geometry">
            <mxPoint as="offset" />
          </mxGeometry>
        </mxCell>
        <mxCell id="n0QjlRPCd2mmZXUzSAw1-29" value="Review" style="ellipse;whiteSpace=wrap;html=1;rounded=0;" vertex="1" parent="1">
          <mxGeometry x="338" y="710" width="80" height="80" as="geometry" />
        </mxCell>
        <mxCell id="n0QjlRPCd2mmZXUzSAw1-49" style="edgeStyle=orthogonalEdgeStyle;rounded=0;orthogonalLoop=1;jettySize=auto;html=1;entryX=1;entryY=0.25;entryDx=0;entryDy=0;" edge="1" parent="1" source="n0QjlRPCd2mmZXUzSAw1-44" target="n0QjlRPCd2mmZXUzSAw1-18">
          <mxGeometry relative="1" as="geometry">
            <Array as="points">
              <mxPoint x="520" y="55" />
              <mxPoint x="520" y="435" />
            </Array>
          </mxGeometry>
        </mxCell>
        <mxCell id="n0QjlRPCd2mmZXUzSAw1-44" value="Asks for subject and prompt" style="whiteSpace=wrap;html=1;rounded=0;" vertex="1" parent="1">
          <mxGeometry x="550" y="25" width="120" height="60" as="geometry" />
        </mxCell>
        <mxCell id="n0QjlRPCd2mmZXUzSAw1-50" value="&#xa;&lt;span style=&quot;forced-color-adjust: none; color: rgb(0, 0, 0); font-family: Helvetica; font-size: 12px; font-style: normal; font-variant-ligatures: normal; font-variant-caps: normal; font-weight: 400; letter-spacing: normal; orphans: 2; text-align: center; text-indent: 0px; text-transform: none; widows: 2; word-spacing: 0px; -webkit-text-stroke-width: 0px; white-space: normal; text-decoration-thickness: initial; text-decoration-style: initial; text-decoration-color: initial; background-color: rgb(251, 251, 251); float: none; display: inline !important;&quot;&gt;Redirected to gmail api for sending message&lt;/span&gt;&lt;br style=&quot;forced-color-adjust: none; color: rgb(0, 0, 0); font-family: Helvetica; font-size: 12px; font-style: normal; font-variant-ligatures: normal; font-variant-caps: normal; font-weight: 400; letter-spacing: normal; orphans: 2; text-align: center; text-indent: 0px; text-transform: none; widows: 2; word-spacing: 0px; -webkit-text-stroke-width: 0px; white-space: normal; background-color: rgb(251, 251, 251); text-decoration-thickness: initial; text-decoration-style: initial; text-decoration-color: initial;&quot;&gt;&#xa;&#xa;" style="rounded=1;whiteSpace=wrap;html=1;" vertex="1" parent="1">
          <mxGeometry x="318" y="880" width="120" height="60" as="geometry" />
        </mxCell>
      </root>
    </mxGraphModel>
  </diagram>
</mxfile>
